<?xml version="1.0" encoding="UTF-8"?>
<svg xmlns="http://www.w3.org/2000/svg" xmlns:xlink="http://www.w3.org/1999/xlink" viewBox="0 0 48 48" width="48px" height="48px">
<g id="surface41129695">
<path style="fill-rule:nonzero;fill:rgb(0%,14.509805%,12.941177%);fill-opacity:1;stroke-width:8;stroke-linecap:butt;stroke-linejoin:round;stroke:rgb(0%,14.509805%,12.941177%);stroke-opacity:1;stroke-miterlimit:10;" d="M 224 53.333333 C 227.854167 53.270833 231.416667 55.291667 233.354167 58.625 C 235.3125 61.9375 235.3125 66.0625 233.354167 69.375 C 231.416667 72.708333 227.854167 74.729167 224 74.666667 L 32 74.666667 C 28.145833 74.729167 24.583333 72.708333 22.645833 69.375 C 20.6875 66.0625 20.6875 61.9375 22.645833 58.625 C 24.583333 55.291667 28.145833 53.270833 32 53.333333 Z M 224 117.333333 C 227.854167 117.270833 231.416667 119.291667 233.354167 122.625 C 235.3125 125.9375 235.3125 130.0625 233.354167 133.375 C 231.416667 136.708333 227.854167 138.729167 224 138.666667 L 32 138.666667 C 28.145833 138.729167 24.583333 136.708333 22.645833 133.375 C 20.6875 130.0625 20.6875 125.9375 22.645833 122.625 C 24.583333 119.291667 28.145833 117.270833 32 117.333333 Z M 224 181.333333 C 227.854167 181.270833 231.416667 183.291667 233.354167 186.625 C 235.3125 189.9375 235.3125 194.0625 233.354167 197.375 C 231.416667 200.708333 227.854167 202.729167 224 202.666667 L 32 202.666667 C 28.145833 202.729167 24.583333 200.708333 22.645833 197.375 C 20.6875 194.0625 20.6875 189.9375 22.645833 186.625 C 24.583333 183.291667 28.145833 181.270833 32 181.333333 Z M 224 181.333333 " transform="matrix(0.1875,0,0,0.1875,0,0)"/>
<path style=" stroke:none;fill-rule:nonzero;fill:rgb(76.47059%,54.901963%,21.960784%);fill-opacity:1;" d="M 6 10 C 5.277344 9.988281 4.609375 10.367188 4.246094 10.992188 C 3.878906 11.613281 3.878906 12.386719 4.246094 13.007812 C 4.609375 13.632812 5.277344 14.011719 6 14 L 42 14 C 42.722656 14.011719 43.390625 13.632812 43.753906 13.007812 C 44.121094 12.386719 44.121094 11.613281 43.753906 10.992188 C 43.390625 10.367188 42.722656 9.988281 42 10 Z M 6 22 C 5.277344 21.988281 4.609375 22.367188 4.246094 22.992188 C 3.878906 23.613281 3.878906 24.386719 4.246094 25.007812 C 4.609375 25.632812 5.277344 26.011719 6 26 L 42 26 C 42.722656 26.011719 43.390625 25.632812 43.753906 25.007812 C 44.121094 24.386719 44.121094 23.613281 43.753906 22.992188 C 43.390625 22.367188 42.722656 21.988281 42 22 Z M 6 34 C 5.277344 33.988281 4.609375 34.367188 4.246094 34.992188 C 3.878906 35.613281 3.878906 36.386719 4.246094 37.007812 C 4.609375 37.632812 5.277344 38.011719 6 38 L 42 38 C 42.722656 38.011719 43.390625 37.632812 43.753906 37.007812 C 44.121094 36.386719 44.121094 35.613281 43.753906 34.992188 C 43.390625 34.367188 42.722656 33.988281 42 34 Z M 6 34 "/>
</g>
</svg>
