<?xml version="1.0" encoding="UTF-8"?>
<svg xmlns="http://www.w3.org/2000/svg" xmlns:xlink="http://www.w3.org/1999/xlink" viewBox="0 0 24 24" width="24px" height="24px">
<g id="surface41021043">
<path style="fill-rule:nonzero;fill:rgb(0%,14.509805%,12.941177%);fill-opacity:1;stroke-width:8;stroke-linecap:butt;stroke-linejoin:round;stroke:rgb(0%,14.509805%,12.941177%);stroke-opacity:1;stroke-miterlimit:10;" d="M 224 53.333333 C 227.833333 53.291667 231.416667 55.291667 233.375 58.625 C 235.291667 61.958333 235.291667 66.041667 233.375 69.375 C 231.416667 72.708333 227.833333 74.708333 224 74.666667 L 32 74.666667 C 28.166667 74.708333 24.583333 72.708333 22.625 69.375 C 20.708333 66.041667 20.708333 61.958333 22.625 58.625 C 24.583333 55.291667 28.166667 53.291667 32 53.333333 Z M 224 117.333333 C 227.833333 117.291667 231.416667 119.291667 233.375 122.625 C 235.291667 125.958333 235.291667 130.041667 233.375 133.375 C 231.416667 136.708333 227.833333 138.708333 224 138.666667 L 32 138.666667 C 28.166667 138.708333 24.583333 136.708333 22.625 133.375 C 20.708333 130.041667 20.708333 125.958333 22.625 122.625 C 24.583333 119.291667 28.166667 117.291667 32 117.333333 Z M 224 181.333333 C 227.833333 181.291667 231.416667 183.291667 233.375 186.625 C 235.291667 189.958333 235.291667 194.041667 233.375 197.375 C 231.416667 200.708333 227.833333 202.708333 224 202.666667 L 32 202.666667 C 28.166667 202.708333 24.583333 200.708333 22.625 197.375 C 20.708333 194.041667 20.708333 189.958333 22.625 186.625 C 24.583333 183.291667 28.166667 181.291667 32 181.333333 Z M 224 181.333333 " transform="matrix(0.09375,0,0,0.09375,0,0)"/>
<path style=" stroke:none;fill-rule:nonzero;fill:rgb(76.47059%,54.901963%,21.960784%);fill-opacity:1;" d="M 3 5 C 2.640625 4.996094 2.304688 5.183594 2.121094 5.496094 C 1.941406 5.808594 1.941406 6.191406 2.121094 6.503906 C 2.304688 6.816406 2.640625 7.003906 3 7 L 21 7 C 21.359375 7.003906 21.695312 6.816406 21.878906 6.503906 C 22.058594 6.191406 22.058594 5.808594 21.878906 5.496094 C 21.695312 5.183594 21.359375 4.996094 21 5 Z M 3 11 C 2.640625 10.996094 2.304688 11.183594 2.121094 11.496094 C 1.941406 11.808594 1.941406 12.191406 2.121094 12.503906 C 2.304688 12.816406 2.640625 13.003906 3 13 L 21 13 C 21.359375 13.003906 21.695312 12.816406 21.878906 12.503906 C 22.058594 12.191406 22.058594 11.808594 21.878906 11.496094 C 21.695312 11.183594 21.359375 10.996094 21 11 Z M 3 17 C 2.640625 16.996094 2.304688 17.183594 2.121094 17.496094 C 1.941406 17.808594 1.941406 18.191406 2.121094 18.503906 C 2.304688 18.816406 2.640625 19.003906 3 19 L 21 19 C 21.359375 19.003906 21.695312 18.816406 21.878906 18.503906 C 22.058594 18.191406 22.058594 17.808594 21.878906 17.496094 C 21.695312 17.183594 21.359375 16.996094 21 17 Z M 3 17 "/>
</g>
</svg>
