<?xml version="1.0" encoding="utf-8"?>
<!-- Generator: Adobe Illustrator 24.2.0, SVG Export Plug-In . SVG Version: 6.00 Build 0)  -->
<svg version="1.1" id="Layer_1" xmlns="http://www.w3.org/2000/svg" xmlns:xlink="http://www.w3.org/1999/xlink" x="0px" y="0px"
	 viewBox="0 0 1366 768" style="enable-background:new 0 0 1366 768;" xml:space="preserve">
<style type="text/css">
	.st0{fill:#002521;}
	.st1{fill:#BB8741;}
</style>
<g>
	<path class="st0" d="M356.27,558.89v-57.54c0-4.93-0.55-7.94,4.8-11.64c-4.93,0.96-9.59,2.6-14.25,4.38v-9.04h31.1
		c21.23,0,33.84,6.85,33.43,23.15c0,9.04-7.53,17.95-22.74,21.78c15.75,0,30.55,6.17,30.55,24.11c0,16.71-13.84,26.85-32.33,26.85
		h-40v-3.42C357.23,575.05,356.27,569.57,356.27,558.89z M362.16,576.29l20.14-0.55c14.11,0,23.56-7.12,23.56-20.82
		c0-11.1-4.66-16.71-12.19-20.82c-3.7-2.05-7.67-3.01-11.92-3.01h-13.56v33.7C368.19,569.71,368.05,574.64,362.16,576.29z
		 M368.19,506.42v22.74h12.33c14.93,0,20.69-11.51,20.41-20.96c-0.14-9.86-3.84-15.89-12.19-18.63c-2.88-0.96-5.62-1.37-7.95-1.37
		c-1.1,0-2.19,0.14-3.15,0.27C367.37,490.12,368.19,496.69,368.19,506.42z"/>
	<path class="st0" d="M427.1,521.49v-9.04h20.96v40.41c0,15.75,3.01,24.66,13.84,24.66c0.55,0,1.1,0.14,1.51,0.14
		c6.71,0,13.97-3.84,16.99-6.44v-39.45c0-8.9-0.55-12.33,4.79-14.66c-4.93,0.96-9.73,2.47-14.25,4.66v-9.32h21.1v50.41
		c0,7.53,0.41,11.37-6.85,13.43c6.16-0.96,11.51-2.33,16.17-4.38v9.04h-20.96v-7.81c-5.34,5.62-13.84,10-21.92,10
		c-14.8,0-22.47-7.26-22.47-29.86v-23.01c0-3.29-0.68-9.45,5.34-13.15C436.42,518.06,431.76,519.71,427.1,521.49z"/>
	<path class="st0" d="M519.71,559.57v-31.78c0-3.7-0.55-6.99,4.79-10.68c-4.93,0.96-9.59,2.6-14.25,4.38v-9.04h21.37v12.19
		c3.56-6.71,13.15-14.38,22.74-14.38c5.07,0,9.73,2.47,9.73,8.49c0,3.97-3.15,6.71-6.99,6.71c-3.97-0.41-6.71-3.7-6.16-7.67
		c-1.78-1.23-3.56-1.78-5.21-1.78c-5.89,0-10.96,6.3-14.11,10.55v38.08c0,5.07,0.14,10-6.85,11.64c5.21-0.96,10.14-2.33,14.93-4.38
		v9.04h-29.45v-4.11C520.66,575.74,519.71,569.3,519.71,559.57z"/>
	<path class="st0" d="M579.43,559.57v-31.78c0-3.7-0.55-6.99,4.79-10.68c-4.93,0.96-9.59,2.6-14.25,4.38v-9.04h21.37v12.19
		c3.56-6.71,13.15-14.38,22.74-14.38c5.07,0,9.73,2.47,9.73,8.49c0,3.97-3.15,6.71-6.99,6.71c-3.97-0.41-6.71-3.7-6.16-7.67
		c-1.78-1.23-3.56-1.78-5.21-1.78c-5.89,0-10.96,6.3-14.11,10.55v38.08c0,5.07,0.14,10-6.85,11.64c5.21-0.96,10.14-2.33,14.93-4.38
		v9.04h-29.45v-4.11C580.39,575.74,579.43,569.3,579.43,559.57z"/>
	<path class="st0" d="M629.44,548.34c0-21.64,14.93-38.08,34.38-38.08c19.04,0,34.52,14.93,34.52,34.8
		c0,21.23-15.21,38.08-34.52,38.08C644.64,583.13,629.44,568.61,629.44,548.34z M651.77,573.82c3.15,3.97,7.26,5.89,12.06,5.89
		c15.62,0,20.55-17.95,20.55-30.69c0-8.22-1.51-16.44-4.79-23.01c-3.29-6.44-8.49-12.33-15.75-12.33
		c-14.93,0-20.41,18.36-20.41,30.69C643.41,555.74,645.19,566.01,651.77,573.82z"/>
	<path class="st0" d="M703.82,512.45h17.53l12.6,37.67c1.51,4.38,2.88,8.9,4.38,13.29c1.64-4.93,3.43-10,5.07-15.07l12.06-35.89
		h5.62l13.97,39.45c1.37,3.97,2.88,8.22,4.38,12.47c1.51-3.97,2.74-7.95,4.11-11.92l9.04-25.62c1.23-3.7,2.47-8.77,7.4-10.96h-11.23
		v-3.43h23.84v3.43c-8.36,0-11.37,4.11-13.84,11.51l-19.73,53.56h-5.48l-13.01-37.4c-1.64-4.93-3.29-9.73-4.93-14.38
		c-1.64,4.66-3.29,9.45-4.93,14.38l-12.88,37.4h-5.21l-17.12-49.73c-1.78-5.34-2.74-10.41,2.6-14.11c-4.93,0.96-9.59,2.6-14.25,4.38
		V512.45z"/>
	<path class="st0" d="M851.37,510.26c7.67,0,14.52,2.47,19.59,7.4c5.21,4.93,8.22,13.7,8.22,19.86h-48.63
		c-1.64,24.11,6.99,38.63,23.01,38.63c8.9,0,17.67-5.48,23.84-10.82l2.6,2.19c-8.08,9.45-16.99,15.62-29.73,15.62
		c-18.91,0-33.43-14.11-33.43-36.3C816.85,527.65,830.82,510.26,851.37,510.26z M830.82,535.6h43.84c-3.7-0.41-6.03-2.74-7.12-7.12
		c-1.92-7.94-7.12-14.79-16.03-14.79C840.95,513.68,833.69,521.49,830.82,535.6z"/>
	<path class="st0" d="M899.72,559.57v-31.78c0-3.7-0.55-6.99,4.79-10.68c-4.93,0.96-9.59,2.6-14.25,4.38v-9.04h21.37v12.19
		c3.56-6.71,13.15-14.38,22.74-14.38c5.07,0,9.73,2.47,9.73,8.49c0,3.97-3.15,6.71-6.99,6.71c-3.97-0.41-6.71-3.7-6.16-7.67
		c-1.78-1.23-3.56-1.78-5.21-1.78c-5.89,0-10.96,6.3-14.11,10.55v38.08c0,5.07,0.14,10-6.85,11.64c5.21-0.96,10.14-2.33,14.93-4.38
		v9.04h-29.45v-4.11C900.68,575.74,899.72,569.3,899.72,559.57z"/>
	<path class="st0" d="M947.94,521.49v-9.04h15.21l25.48,54.66c4.25-11.64,7.94-23.01,11.78-34.38c1.51-3.97,3.01-8.49,4.93-12.6
		c0.96-2.05,2.74-3.43,5.34-4.25h-13.01v-3.43h21.51v3.43c-7.12,1.64-9.45,9.18-12.74,18.49l-17.12,47.81
		c-8.22,23.01-13.01,35.89-25.34,35.89c-5.62,0-10.27-2.74-10.27-8.36c0-3.29,2.74-5.75,5.89-5.75c3.7,0.14,5.75,2.88,5.75,5.48
		c0,0.55,0,0.96-0.14,1.64c0.41,0.27,1.1,0.41,1.78,0.41c2.19,0,4.52-2.19,6.58-5.62c2.33-3.97,5.62-12.33,9.59-23.43l-21.37-45.75
		c-4.8-10.28-4.93-15.89,0.41-19.59C957.26,518.06,952.6,519.71,947.94,521.49z"/>
</g>
<g>
	<g>
		<path class="st1" d="M558.4,648.28v-14.37c0-0.9-0.13-1.7,1.16-2.59c-1.2,0.23-2.33,0.63-3.46,1.06v-2.2h7.62
			c6.42,0,9.05,2.16,9.05,6.05c0.03,1.56-1,3.63-2.66,4.49c-0.83,0.43-2.03,0.63-3.52,0.63c0.83,0.23,1.63,1.1,2.26,2.59l2.26,5.25
			c0.86,1.93,2.03,3.43,4.06,3.43v0.83h-3.79c-1.26,0-2.49-2.69-2.96-3.69l-2.43-5.35c-0.67-1.5-1.4-2.69-2.43-3.06h-2.26v8.15
			c0,1.23,0.03,2.43-1.66,2.83c1.5-0.23,2.79-0.57,3.96-1.06v2.2h-7.48v-0.83C558.63,652.04,558.4,650.67,558.4,648.28z
			 M561.29,635.38v5.52h2.36c2.43,0,3.76-0.2,5.06-1.6c0.63-0.67,0.96-1.63,0.96-2.89c0-3.16-2-5.45-5.26-5.45
			c-0.27,0-0.56,0.03-0.83,0.07C561.09,631.42,561.29,633.01,561.29,635.38z"/>
		<path class="st1" d="M576.3,645.55c0-5.26,3.62-9.25,8.35-9.25c4.62,0,8.38,3.62,8.38,8.45c0,5.15-3.69,9.25-8.38,9.25
			C579.99,654,576.3,650.48,576.3,645.55z M581.72,651.74c0.76,0.96,1.76,1.43,2.93,1.43c3.79,0,4.99-4.36,4.99-7.45
			c0-2-0.37-3.99-1.16-5.59c-0.8-1.56-2.06-2.99-3.82-2.99c-3.63,0-4.96,4.46-4.96,7.45C579.69,647.35,580.12,649.84,581.72,651.74z
			"/>
		<path class="st1" d="M605.77,644.19v-2.06c0-2.06-0.3-4.92-3.19-4.92c-1.4,0-2.83,0.8-3.46,2.06c0.37,0.37,0.47,0.87,0.43,1.26
			c-0.1,0.83-0.73,1.3-1.53,1.3c-0.9-0.1-1.4-0.76-1.4-1.53c0-1.5,1.26-2.79,2.86-3.49c0.76-0.33,1.8-0.57,3.09-0.57
			c4.06,0,6.09,2.2,6.05,6.22v7.08c0,1.23-0.07,2.4-1.76,2.79c1.16-0.07,2.49-0.43,3.92-1.06v2.2h-5.02v-1.83
			c-1.43,1.43-3.19,2.36-5.16,2.36c-3.36,0-4.99-1.73-4.99-3.96C595.62,645.49,602.31,644.19,605.77,644.19z M601.38,652.1
			c1.83,0,3.06-0.73,4.39-1.96v-5.49c-2.66,0.2-7.05,1.7-6.98,4.99C598.88,651.27,600.01,652.1,601.38,652.1z"/>
		<path class="st1" d="M619.04,636.31c0.6,0,1.36,0.17,2.26,0.47c0.9,0.3,1.63,1.1,2.19,2.36c-0.17-1.03-0.46-1.56-1.2-2.29h2.2
			v5.45h-0.83c-0.3-2.96-1.56-4.76-4.46-4.76c-2.03,0-3.26,1.2-3.26,2.53c0,2.06,2.2,2.93,4.52,3.86c2.53,1.06,5.19,2.2,5.19,5.19
			c0,3.36-2.93,4.89-5.75,4.89c-2.23,0-4.26-0.63-5.62-3.03c0.2,1.16,0.6,1.8,1.26,2.73h-2.2v-5.72h0.83
			c0.53,2.76,2.49,4.72,5.12,4.72c1.7,0,3.66-0.83,3.66-2.63c0-1.83-1.86-2.69-3.92-3.49c-2.66-1.03-5.69-2.1-5.69-5.45
			C613.35,639.27,614.55,636.31,619.04,636.31z"/>
		<path class="st1" d="M627.72,630.55v-2.2h5.22v8.48h5.59v0.47h-5.59v10.14c-0.03,2-0.2,3.29,0.67,4.36
			c0.43,0.53,1.06,0.83,1.9,0.83c1.5,0,2.63-1.1,3.09-2.46l0.67,0.5c-0.73,1.93-2.33,3.33-4.42,3.33c-1.33,0-2.49-0.47-3.43-1.43
			c-0.86-0.9-1.5-1.83-1.4-4.66V637.3h-2.29v-0.47h2.29v-4.76c0-0.9-0.13-1.7,1.16-2.59C629.99,629.72,628.85,630.12,627.72,630.55z
			"/>
		<path class="st1" d="M649.18,636.31c1.86,0,3.53,0.6,4.76,1.8c1.26,1.2,2,3.33,2,4.82h-11.81c-0.4,5.85,1.7,9.38,5.59,9.38
			c2.16,0,4.29-1.33,5.79-2.63l0.63,0.53c-1.96,2.3-4.12,3.79-7.22,3.79c-4.59,0-8.12-3.43-8.12-8.81
			C640.79,640.53,644.19,636.31,649.18,636.31z M644.19,642.46h10.64c-0.9-0.1-1.46-0.67-1.73-1.73c-0.47-1.93-1.73-3.59-3.89-3.59
			C646.65,637.14,644.89,639.03,644.19,642.46z"/>
		<path class="st1" d="M666.87,636.31c1.23,0,3.13,0.73,4.36,1.96v-6.19c0-0.9-0.13-1.7,1.16-2.59c-1.2,0.23-2.33,0.63-3.46,1.06
			v-2.2h5.22v21.15c0,1.3-0.03,2.39-1.66,2.83c1.5-0.23,2.79-0.57,3.96-1.06v2.2h-5.22v-1.5c-0.43,1.36-2.43,2.03-3.92,2.03
			c-4.49,0-8.65-3.59-8.65-9.25C658.66,639.47,661.75,636.31,666.87,636.31z M662.08,645.59c0,4.16,2.06,7.05,5.22,7.05
			c2,0,3.92-0.87,3.92-4.39v-9.51c-1.03-1.16-2.56-1.9-4.02-1.9C663.35,636.84,662.08,642.49,662.08,645.59z"/>
		<path class="st1" d="M687.73,642.19c0-6.72,4.42-12.77,11.54-12.77c2.79,0,5.45,1.06,7.12,3.36c-0.23-1.03-0.5-1.93-0.96-2.89
			h2.19v7.62h-0.83c-0.27-4.36-3.69-6.52-7.52-6.52c-4.46,0-8.28,4.22-8.28,10.71c0,6.19,3.23,10.71,8.88,10.71
			c2.89,0,5.85-1.3,7.95-3.79l0.63,0.53c-2.89,3.96-6.68,4.86-9.41,4.86C692.35,654,687.73,648.85,687.73,642.19z"/>
		<path class="st1" d="M710.82,645.55c0-5.26,3.62-9.25,8.35-9.25c4.62,0,8.38,3.62,8.38,8.45c0,5.15-3.69,9.25-8.38,9.25
			C714.51,654,710.82,650.48,710.82,645.55z M716.24,651.74c0.76,0.96,1.76,1.43,2.93,1.43c3.79,0,4.99-4.36,4.99-7.45
			c0-2-0.37-3.99-1.16-5.59c-0.8-1.56-2.06-2.99-3.82-2.99c-3.63,0-4.96,4.46-4.96,7.45C714.21,647.35,714.64,649.84,716.24,651.74z
			"/>
		<path class="st1" d="M729.68,636.84h2.73v-2.43c0-3.72,1.23-6.22,5.62-6.22c1.53,0,3.92,0.57,3.92,2.46c0,0.83-0.6,1.46-1.4,1.46
			c-0.96-0.03-1.43-0.76-1.43-1.43c0-0.27,0.07-0.5,0.23-0.73c-0.27-0.63-0.8-0.93-1.43-0.93c-1.46,0-2.2,0.87-2.46,2.26
			c-0.13,0.73-0.2,1.83-0.2,3.26v2.29h4.49v0.47h-4.49v12.21c0,1.23,0,2.43-1.63,2.83c1.5-0.23,2.79-0.57,3.96-1.06v2.2h-7.48v-0.83
			c2.49-0.6,2.36-2,2.29-4.36V637.3h-2.73V636.84z"/>
		<path class="st1" d="M741.25,636.84h2.73v-2.43c0-3.72,1.23-6.22,5.62-6.22c1.53,0,3.92,0.57,3.92,2.46c0,0.83-0.6,1.46-1.4,1.46
			c-0.96-0.03-1.43-0.76-1.43-1.43c0-0.27,0.07-0.5,0.23-0.73c-0.27-0.63-0.8-0.93-1.43-0.93c-1.46,0-2.2,0.87-2.46,2.26
			c-0.13,0.73-0.2,1.83-0.2,3.26v2.29h4.49v0.47h-4.49v12.21c0,1.23,0,2.43-1.63,2.83c1.5-0.23,2.79-0.57,3.96-1.06v2.2h-7.48v-0.83
			c2.49-0.6,2.36-2,2.29-4.36V637.3h-2.73V636.84z"/>
		<path class="st1" d="M761.27,636.31c1.86,0,3.52,0.6,4.76,1.8c1.26,1.2,2,3.33,2,4.82h-11.81c-0.4,5.85,1.7,9.38,5.59,9.38
			c2.16,0,4.29-1.33,5.79-2.63l0.63,0.53c-1.96,2.3-4.12,3.79-7.22,3.79c-4.59,0-8.12-3.43-8.12-8.81
			C752.89,640.53,756.29,636.31,761.27,636.31z M756.29,642.46h10.64c-0.9-0.1-1.46-0.67-1.73-1.73c-0.47-1.93-1.73-3.59-3.89-3.59
			C758.75,637.14,756.98,639.03,756.29,642.46z"/>
		<path class="st1" d="M779.14,636.31c1.86,0,3.52,0.6,4.76,1.8c1.26,1.2,2,3.33,2,4.82h-11.81c-0.4,5.85,1.7,9.38,5.59,9.38
			c2.16,0,4.29-1.33,5.79-2.63l0.63,0.53c-1.96,2.3-4.12,3.79-7.22,3.79c-4.59,0-8.12-3.43-8.12-8.81
			C770.76,640.53,774.15,636.31,779.14,636.31z M774.15,642.46h10.64c-0.9-0.1-1.46-0.67-1.73-1.73c-0.47-1.93-1.73-3.59-3.89-3.59
			C776.61,637.14,774.85,639.03,774.15,642.46z"/>
	</g>
</g>
<g>
	<path class="st1" d="M670.95,396.43c44.24,0,80.1-35.86,80.1-80.1h-160.2C590.85,360.57,626.71,396.43,670.95,396.43z"/>
	<ellipse class="st1" cx="615.59" cy="200.89" rx="24.74" ry="86.89"/>
	<path class="st1" d="M726.31,114c-15.67,25.23-24.74,55-24.74,86.89c0,31.89,9.06,61.66,24.74,86.89
		c15.67-25.23,24.74-55,24.74-86.89C751.05,169,741.99,139.23,726.31,114z"/>
	<rect x="590.82" y="412.38" class="st1" width="160.55" height="15.95"/>
</g>
</svg>
